<?xml version="1.0" encoding="utf-8"?>
<!-- Generator: Adobe Illustrator 23.0.1, SVG Export Plug-In . SVG Version: 6.00 Build 0)  -->
<svg version="1.1" id="Groz-Beckert" xmlns="http://www.w3.org/2000/svg" xmlns:xlink="http://www.w3.org/1999/xlink" x="0px"
	 y="0px" viewBox="0 0 1133.86 99.96" style="enable-background:new 0 0 1133.86 99.96;" xml:space="preserve">
<style type="text/css">
	.st0{fill:#1C4525;}
</style>
<path class="st0" d="M1133.84,1.84h-85.86l-0.01,17.86c2.57-4.77,6.77-5.47,8-5.57l28.62,0v76c-0.11,1.26-0.83,5.42-5.57,7.97h24.04
	c-4.75-2.56-5.46-6.74-5.57-7.99l0-75.98c3.48,0,28.34,0,28.34,0c1.23,0.11,5.43,0.8,8,5.57V1.84z"/>
<path class="st0" d="M1008.2,55.99c35.43-3.21,33.27-28.16,33.27-28.16c0-20.24-19.34-25.99-35.41-25.99c-22.34,0-50.94,0-50.94,0
	c4.77,2.57,5.47,6.77,5.57,8l0.01-0.02V90.1c-0.11,1.24-0.81,5.43-5.57,7.99h24.95c-4.77-2.57-5.47-6.77-5.57-8l0,0.01l0-76.14
	h23.67c25.9-0.52,30.23,5.97,30.34,13.4c0.12,7.42-3.91,13.71-15.02,17.37c-11.11,3.66-31.39,2.72-31.39,2.72v8.53l0.32,0.01
	c12.29,0.53,39.39,34.92,53.77,41.26c8.05,3.54,19.71-0.83,19.71-0.83C1031.76,85.28,1009.84,58.04,1008.2,55.99z"/>
<path class="st0" d="M658.47,80.49c-2.57,4.77-6.77,5.47-8,5.57l0,0h-50.92l0-31.75h41.93c1.3,0,4.56,0.43,6.7,4.4l0.01-20.4
	c-1.87,3.85-5.48,4.36-6.34,4.36l-42.3,0v-28.7h50.93c1.24,0.11,5.43,0.81,7.99,5.57l0-5.57h0.01l-0.01-12.15l-78.56-0.01
	c4.77,2.57,5.47,6.77,5.57,8v80.3c-0.11,1.23-0.8,5.43-5.57,8l78.56-0.01l0.01-12.04h-0.01L658.47,80.49z"/>
<path class="st0" d="M807.79,43.01l46.42-41.24h-18.92l-47.27,40.09l0.01-32.1c0.11-1.24,0.81-5.43,5.57-7.99h-24.94
	c4.77,2.57,5.47,6.77,5.57,8l0,0v80.34l0,0c-0.11,1.23-0.8,5.43-5.57,8h24.93c-4.71-2.53-5.45-6.66-5.57-7.95V59.85l9.17-7.96
	l46.12,46.22l18.73,0L807.79,43.01z"/>
<path class="st0" d="M752.19,84.96c-13.6,2.88-23.24,2.9-23.24,2.9c-26.73,0.75-46.6-12.52-46.6-37.59c0-0.07,0-0.36,0-0.44
	c0-25.07,19.87-38.33,46.6-37.59c0,0,8.69-0.38,23.36,2.88c1.79,0.51,4.02,2.02,5.64,5.01l0.01-14.24
	c-8.77-2.32-17.81-5.76-36.71-5.76c-34.09,0-54.78,24.37-54.54,49.69c0,0.07,0,0.36,0,0.44c-0.23,25.31,20.45,49.69,54.54,49.69
	c19.24,0,25.48-2.62,36.71-5.76l0.01-14.3C756.3,82.98,754.51,84.3,752.19,84.96z"/>
<path class="st0" d="M936.97,86.06L936.97,86.06l-50.92,0l0-31.75h41.93c1.3,0,4.56,0.43,6.7,4.4l0.01-20.4
	c-1.87,3.85-5.48,4.36-6.34,4.36l-42.3,0v-28.7h50.94c1.24,0.11,5.43,0.81,7.99,5.57l-0.01-17.73L866.4,1.81
	c4.77,2.57,5.47,6.77,5.57,8v80.3v0c-0.11,1.23-0.8,5.43-5.57,8l78.56-0.01l0.01-17.61C942.4,85.26,938.2,85.96,936.97,86.06z"/>
<path class="st0" d="M556.37,47.56c0,0,12.88-3.19,12.88-19.59c0-26.66-28.63-26.23-28.63-26.23l-57.91,0
	c4.76,2.56,5.46,6.86,5.57,8.1l0,80.18c-0.11,1.23-0.8,5.43-5.57,8l60.49-0.01c0,0,28.2-0.01,28.49-27.52
	C571.83,56.42,559.07,48.65,556.37,47.56z M538.4,86.56h-36.96l0-72.63c0,0,35.38,0,35.39,0c3.75,0,18.75-1.03,18.75,11.86
	c0,15.13-14.18,16.15-17.04,16.15c0,0-30.14,0-30.14,0v11.44l30.93,0c0,0,17.96-0.84,17.92,15.99
	C557.22,86.68,538.77,86.56,538.4,86.56z"/>
<rect x="424.03" y="43.04" class="st0" width="34.18" height="9.63"/>
<path class="st0" d="M407.83,1.77H322.5l-0.01,17.78c2.57-4.77,6.77-5.47,8-5.57l0,0h59.41l-67.4,73.08v11.09h85.33V86.37h0l0-5.57
	c-2.57,4.77-6.76,5.46-8,5.57h-59.29l67.29-73.53V1.77z"/>
<path class="st0" d="M261.04,0c-36.95,0-54.3,22.76-54.24,51.7c0.06,27.72,22.21,48.21,54.24,48.21
	c32.24-0.01,54.44-19.85,54.37-49.23C315.36,21.12,297.97,0,261.04,0z M261.04,88c-25.81,0.57-39.54-15.79-39.63-37.43
	c-0.11-27.84,21.26-39.15,39.63-38.77c24.49,0.51,39.69,14.72,39.93,38.86C301.22,75.06,288.02,87.39,261.04,88z"/>
<path class="st0" d="M162.76,55.99c35.43-3.21,33.27-28.16,33.27-28.16c0-20.24-19.34-25.99-35.41-25.99c-30.32,0-50.93,0-50.93,0
	c4.77,2.57,5.47,6.77,5.57,8v80.25c-0.11,1.23-0.8,5.43-5.57,8l5.57,0v0h13.81v0l5.57,0c-4.77-2.57-5.47-6.77-5.57-8v0l0-76.13
	h23.67c25.9-0.52,30.23,5.97,30.34,13.4c0.12,7.42-3.91,13.71-15.02,17.37c-11.11,3.66-31.39,2.72-31.39,2.72v8.53l0.32,0.01
	c12.29,0.53,39.39,34.92,53.77,41.26c8.05,3.54,19.71-0.83,19.71-0.83C186.32,85.28,164.4,58.04,162.76,55.99z"/>
<path class="st0" d="M0,49.78c0.25,25.91,16.12,50.12,50.22,50.12c33.36,0,47.37-11.5,47.37-11.5V44.73H52.28v11.72h33.26v25.06
	c0,0-10.1,7.52-35.76,6.79C28.07,87.69,15.2,73.93,15.2,49.78c0-25.07,20.15-37.59,47.05-37.59c0,0,8.61-0.39,29.16,3.12
	c2.34,0.57,4.47,1.99,6.18,5.17V5.86C86.08,3.97,76.18,0.1,54.54,0.1C20.45,0.1-0.23,24.47,0,49.78z"/>
</svg>
